<svg xmlns="http://www.w3.org/2000/svg" class="line-svg"  fill="none" stroke="currentColor" stroke-padding="2" stroke-width="1.5" d="M0 0h24v24H0z" aria-hidden="true" viewBox="50 200 940 229.33"><path stroke="currentColor" d="M67.02,561.97c-1.43-43.92-31.1-89.03-45-130.06-6.31-18.63-10.78-33.85-3.81-52.7,6.5-17.58,11.01-25.87,4.74-45.4-5.75-17.88-19.59-34.1-21.7-53.05-1.97-17.66,8.08-33.45,15.33-48.67,10.18-21.36,8.94-40.05,9.04-63.49,.18-41.47,.83-82.94,.95-124.42"/><path stroke="currentColor" d="M74.32,562.49c-.85-43.4-30.32-89.06-44.21-129.52-6.38-18.59-11.36-34.08-4.8-53.08,6.01-17.41,10.55-26.36,4.99-45.62-5.22-18.07-19-34.38-21.19-53.23-2.03-17.48,7.9-33.57,15.03-48.68,10.18-21.57,9.2-39.74,9.33-63.4,.22-41.42,1.29-82.82,1.17-124.24"/><path d="M81.62,562.6c-1.14-43.5-29.95-89.25-43.99-129.81-6.57-18.99-11.48-34.16-5.12-53.6,5.63-17.23,9.69-27.24,4.72-46.1-4.78-18.16-18.25-34.64-20.13-53.45-1.73-17.3,8.15-33.54,15.04-48.61,9.98-21.81,8.85-40.46,9.06-64.23,.35-40.98,1.88-81.95,1.57-122.93"/><path d="M88.93,563.65c-.64-43.13-29.23-89.82-43.49-129.88-6.75-18.96-12.45-34.95-6.55-54.63,5.14-17.15,9.6-27.81,5.53-46.55-4.01-18.46-17.01-35.03-19-53.8-1.82-17.18,7.61-33.63,14.27-48.74,9.65-21.89,8.82-40.22,9.12-63.98,.51-40.65,2.53-81.26,2.2-121.93"/><path d="M96.25,564.24c-.98-43.43-28.99-90.44-43.57-130.75-7.02-19.41-12.95-35.5-7.27-55.76,4.77-17.02,9.18-28.75,5.9-47.22-3.32-18.65-15.69-35.39-17.42-54.19-1.57-17.07,7.46-33.57,13.78-48.78,9.15-22.02,8.23-40.96,8.69-64.62,.77-40,3.32-79.92,2.93-119.94"/><path d="M103.58,565.76c-.54-43.33-28.48-91.28-43.32-131.33-7.21-19.47-14.26-36.7-9.06-57.34,4.29-17.02,9.37-29.5,7.15-47.89-2.3-19.02-13.88-35.84-15.74-54.69-1.68-17,6.64-33.65,12.61-49.01,8.55-21.99,7.94-40.8,8.55-64.24,1.02-39.44,4.15-78.76,3.89-118.23"/><path d="M110.92,566.77c-.9-44.86-29.34-94.18-44.72-135.56-6.28-16.92-14.02-34.14-10.11-52.47,3.82-17.9,10.65-33.37,9.37-52.4-1.27-18.86-11.85-35.6-13.72-54-1.71-16.83,5.2-32.73,10.66-48.22,8.25-23.41,7.89-44.57,8.86-69.22,1.48-37.8,5.04-75.44,4.79-113.3"/><path d="M118.26,568.7c-.27-23.03-10.8-46.3-18.64-67.58-8.51-23.11-17.31-46.09-26.1-69.1-6.56-17.17-15.29-35.39-11.96-54.21,3.21-18.11,10.86-34.5,10.78-53.49-.09-19.16-9.5-36.04-11.51-54.58-1.83-16.82,4.2-32.82,9.19-48.56,7.38-23.25,7.29-44.49,8.48-68.72,1.82-37.08,6.01-73.92,6.02-111.07"/><path d="M125.61,570.08c-.95-45.7-29-96.73-45.36-138.58-6.9-17.66-16.3-36.58-13.18-56.07,2.95-18.36,11.21-35.54,12.15-54.53,.96-19.37-7.47-36.5-9.33-55.21-1.66-16.74,3.67-32.87,8.09-48.76,6.46-23.22,6.29-45.09,7.8-69.02,2.28-36.13,7.1-71.92,7.2-108.17"/><path d="M132.97,572.36c-.31-23.38-10.63-46.93-18.43-68.61-8.63-23.99-17.61-47.76-27.1-71.43-7.23-18.03-17.72-38.04-15.22-58.13,2.34-18.84,11.52-36.75,13.75-55.81,2.29-19.66-4.72-36.85-6.73-55.88-1.78-16.77,2.56-33,6.4-49.18,5.46-22.99,5.47-45.02,7.25-68.48,2.68-35.26,8.2-70.09,8.63-105.5"/><path d="M140.33,574.03c-1.92-48.58-29.47-101.27-47.69-145.53-7.67-18.64-17.48-37.61-14.73-58.25,2.52-18.87,11.27-36.82,14.66-55.63,3.54-19.68-2.25-36.31-4.13-55.67-1.73-17.87,2.15-35.33,5.55-52.74,4.47-22.89,4.01-45.33,6.27-68.5,3.27-33.51,9.24-66.47,9.75-100.22"/><path d="M147.69,576.6c-1.62-49.06-29.29-102.89-48.03-147.36-8.07-19.14-19.05-39.25-16.93-60.62,1.94-19.45,11.68-37.96,16.44-56.85,5.01-19.88,.77-36.58-1.22-56.47-1.8-17.94,.92-35.54,3.62-53.23,3.44-22.63,3.1-45.17,5.69-67.88,3.72-32.57,10.41-64.44,11.31-97.32"/><path d="M155.06,578.5c-2.09-50.11-29.56-104.72-49.07-150.02-8.5-19.74-20.23-40.63-18.36-62.77,1.71-20.22,12.42-38.96,18.44-58.11,6.28-19.99,3.32-36.87,1.33-57.26-1.75-17.98-.04-35.7,1.88-53.58,2.44-22.6,2.05-45.37,5.11-67.88,4.29-31.51,11.67-62.12,12.69-94.04"/><path d="M162.44,581.31c-1.83-50.68-29.43-106.41-49.47-152.02-8.94-20.34-21.85-42.37-20.65-65.31,1.1-21.02,12.78-40.15,20.22-59.44,13.47-34.91,1.99-75.3,4.33-112.23,1.42-22.41,.95-45.09,4.41-67.3,4.75-30.54,12.91-59.93,14.35-90.96"/><path d="M169.81,583.38c-2.2-50.3-28.77-106.09-48.98-151.27-9.96-22.26-25.92-47.87-24.23-73.19,1.41-21.05,14.65-40.32,23.22-58.91,16.31-35.37,3.99-77.69,4.74-115.52,.4-20.04-.08-40.1,3.02-59.94,4.89-31.31,14.95-60.84,16.54-92.71"/><path d="M177.19,586.35c-1.97-50.88-28.61-107.69-49.31-153.22-10.47-23.04-27.56-49.65-26.68-75.87,.73-21.92,15.07-41.76,24.95-60.39,19.39-36.56,6.79-77.55,5.9-116.98-.45-19.98-1.19-39.83,2.26-59.59,5.3-30.31,16.25-58.45,18.3-89.4"/><path d="M184.57,588.53c-2.34-50.73-27.84-107.02-48.69-152.36-10.82-23.54-27.78-50.49-29.71-76.95-1.79-24.5,15.12-46.47,26.7-66.48,21.71-37.51,9.47-75.59,6.79-116.32-1.41-21.45-2.51-42.33,1.99-63.5,6.1-28.7,17.37-54.78,19.41-84.37"/><path d="M191.96,591.62c-2.12-51.27-27.64-108.49-48.9-154.19-11.4-24.52-28.92-52.04-31.98-79.43-2.86-25.65,14.96-48.01,28.02-68.28,24.96-38.78,12.77-75.17,8.15-117.82-2.32-21.42-3.87-42.03,1.09-63.23,6.51-27.77,18.64-52.4,21.11-81.2"/><path d="M199.33,593.84c-2.57-52.41-27.94-110.31-49.92-156.96-11.9-25.26-30.29-53.71-33.63-81.99-3.12-26.43,16.3-49.2,30.42-69.39,27.68-39.59,14.98-75.13,8.52-119.13-3.17-21.6-5.04-41.86,.65-63.25,7.16-26.91,19.97-49.92,22.46-78.14"/><path d="M206.73,596.98c-2.41-54.54-28.94-114.3-52-162.73-12.26-25.76-35.7-59.55-34.88-89.73,.63-23.28,19.28-44.9,32.83-62.1,30.69-38.94,18.39-73.76,10.01-118.12-3.83-20.3-7.21-40.95-1.96-61.31,7.12-27.64,22.35-50.25,25.35-79.19"/><path d="M214.09,599.19c-2.85-55.73-29.27-116.11-53.05-165.54-12.56-26.1-37.4-61.39-36.35-92.15,.82-23.98,20.78-45.83,35.21-63.01,16.35-19.46,25.94-39.42,22.78-65.33-2.23-18.29-8.55-36.1-12.54-54.04-4.54-20.39-8.34-41.02-2.46-61.56,7.72-26.96,23.69-47.72,26.64-76.34"/><path d="M221.49,602.32c-2.64-56.25-28.98-117.42-53.12-167.21-13.11-27.05-38.67-62.9-38.66-94.64,0-24.72,20.95-47.3,36.24-64.4,17.21-19.25,29.34-39.4,25.89-66.18-2.39-18.6-9.39-36.52-14.03-54.6-5.25-20.47-9.53-40.95-3.52-61.76,7.64-26.41,24.8-45.43,28.16-73.59"/><path d="M228.86,604.45c-3.12-59.01-30.43-122.03-56.12-174.05-13.26-26.85-33.87-56.56-37.32-86.93-3.18-27.97,20.33-51.72,37.45-70.56,19.89-21.89,31.82-40.23,27.07-70.98-2.83-18.35-10.53-35.84-15.46-53.66-5.62-20.29-9.65-40.6-2.68-61.13,8.52-25.11,25.64-42.33,28.73-69.85"/><path d="M236.25,607.51c-2.89-59.46-30.06-123.2-56.05-175.54-13.76-27.7-34.56-57.69-39.16-88.8-4.28-28.92,19.68-53.06,37.83-72.13,20.8-21.84,34.73-40.07,29.9-71.85-2.83-18.64-11.27-36.26-16.74-54.18-6.17-20.19-10.89-40.86-3.59-61.45,8.73-24.62,26.59-40.42,30.02-67.63"/><path d="M243.61,609.5c-3.17-58.77-28.96-121.83-54.74-173.67-14.22-28.6-39.35-63.82-42.08-96.32-2.47-29.38,20.2-52.62,39.87-71.75,19.01-18.49,34.55-37.81,31.62-66.16-2.26-21.83-13.32-42.26-19.83-62.92-6.37-20.2-10.46-40.54-2.36-60.78,9.55-23.84,27.16-37.56,30.25-64.71"/><path d="M251.01,612.42c-2.92-59.02-28.45-122.69-54.39-174.73-14.68-29.45-39.92-64.68-43.74-97.94-3.48-30.21,19.17-53.87,39.74-73.2,19.78-18.59,36.8-37.54,34.07-66.85-2.07-22.2-13.77-42.71-20.76-63.5-6.76-20.1-11.43-40.97-3.11-61.28,9.65-23.58,27.91-36.05,31.25-63.11"/><path d="M258.36,614.21c-3.27-59.89-28.54-123.97-54.99-176.77-14.87-29.68-40.89-65.71-44.49-99.32-3.3-30.77,20.1-54.46,41.26-73.75,20.45-18.64,37.56-37.6,34.52-67.48-2.29-22.56-14.35-42.84-21.67-63.87-7-20.12-11.73-41.48-2.93-61.76,10.24-23.58,28.66-34.54,31.64-62.24"/><path d="M265.74,616.94c-2.88-58.15-26.66-121.68-52.2-173.05-15.88-31.95-44.9-70.78-48.99-107.48-3.33-29.87,21.15-53.59,41.1-71.99,22.78-21.02,40.99-39.08,36.34-72.28-2.89-20.63-13.31-39.19-20.65-58.39-8-20.93-13.92-44.54-3.94-65.89,10.71-22.9,28.73-32.86,31.77-60.23"/><path d="M273.08,618.47c-3.16-58.81-26.6-122.63-52.51-174.6-15.93-31.94-45.75-71.53-49.39-108.38-3-30.35,21.56-53.85,42.04-72.35,23.48-21.22,41.09-39.11,36.24-72.84-3-20.84-13.6-39.31-21.09-58.67-8.1-20.93-13.91-45.33-3.58-66.6,11.24-23.16,29.22-32,31.74-60.26"/><path d="M280.46,620.94c-2.83-58.63-25.87-122.94-51.65-174.77-16.24-32.66-45.61-71.71-50.38-109.05-3.94-30.87,19.73-54.56,40.79-73.4,24.15-21.59,42.17-38.75,37.64-73.35-2.76-21.1-13.3-39.59-20.96-59.11-8.2-20.88-14.24-46.17-4.1-67.57,11.06-23.36,29.4-31.82,31.99-60.27"/><path d="M287.73,622.14c-3.06-64.22-30.4-133.38-59.22-189.57-14.55-28.37-35.52-58.13-42.33-89.64-7.28-33.69,18.08-60,41.4-80.14,23.26-20.08,40.88-38.65,37.06-72-2.4-20.94-12.33-39.32-19.76-58.7-8.45-22.04-15.32-48.75-3.87-71.11,11.51-22.49,28.46-32.45,30.55-60.1"/><path d="M295.03,624.27c-2.51-63.54-30.52-134.27-59.13-189.7-14.63-28.35-35.3-57.68-42.69-89.04-8-33.95,17.2-60.59,40.72-81.05,23.18-20.17,42.19-38.8,38.86-72.35-2.09-21.07-11.85-39.9-19.11-59.46-8.27-22.26-15.42-48.81-4.37-71.5,10.95-22.49,27.86-33.21,30.19-60.35"/><path d="M302.3,625.11c-1.27-28.87-11.02-57.3-19.03-84.84-10.83-37.21-23.17-71.21-41.25-105.81-14.59-27.93-35.57-57.1-42.38-88.25-7.42-33.95,19.11-60.45,42.44-80.71,23.06-20.04,42.18-39.28,38.89-72.54-2.09-21.14-11.74-40.35-18.74-60.11-7.99-22.55-14.93-48.85-3.87-71.68,10.95-22.61,27.28-33.83,29.27-61.09"/><path d="M309.58,626.86c-1.11-29.04-11.41-57.63-19.62-85.26-10.94-36.82-22.67-70.63-40.76-104.88-14.61-27.66-35.27-56.18-42.6-86.94-8.11-34.07,18.41-60.72,41.89-81.1,23.02-19.98,43.51-39.14,40.81-72.51-1.72-21.3-11.17-41.01-17.95-61-7.73-22.76-14.91-49.04-4.28-72.16,10.38-22.58,26.61-34.51,28.81-61.28"/><path d="M316.83,627.27c-1.33-29.36-12.21-58.17-20.67-86.06-11.13-36.68-22.66-70.3-40.99-104.38-14.55-27.05-35.49-55.21-42.24-85.58-7.52-33.88,20.17-60.21,43.35-80.24,22.89-19.78,43.22-39.26,40.61-72.27-1.7-21.45-10.9-41.57-17.38-61.85-7.37-23.05-14.3-49.17-3.67-72.42,10.38-22.69,26.05-35.08,27.92-61.93"/><path d="M324.1,628.57c-1.04-29.46-12.39-58.43-20.97-86.33-11.14-36.28-22.15-69.5-40.62-103.11-14.63-26.62-35.39-53.96-42.74-83.81-8.32-33.83,19.12-60.12,42.34-80.14,22.8-19.67,44.09-38.91,42.11-71.87-1.3-21.66-10.2-42.33-16.4-62.89-7.02-23.27-14.09-49.57-4-73.09,9.75-22.7,25.22-35.85,27.21-62.25"/><path d="M331.34,628.5c-1.19-29.75-13.07-58.91-21.83-87.06-11.25-36.13-22.12-68.91-40.98-102.25-14.65-25.89-35.78-52.71-42.66-82.09-7.83-33.45,20.77-59.31,43.61-78.82,22.7-19.39,43.6-38.68,41.8-71.23-1.21-21.9-9.71-43.03-15.54-63.98-6.56-23.59-13.28-49.9-3.37-73.59,9.58-22.91,24.37-36.68,25.92-63.19"/><path d="M338.59,629.29c-.96-29.85-13.37-59.15-22.31-87.3-11.32-35.65-21.65-68-40.69-100.79-14.72-25.35-35.7-51.24-43.16-79.98-8.64-33.27,19.73-58.84,42.57-78.14,22.63-19.13,44.32-37.95,43.27-70.33-.72-22.17-8.8-43.91-14.24-65.23-6.09-23.86-12.79-50.55-3.49-74.52,8.93-22.99,23.46-37.62,25.07-63.76"/><path d="M346.16,628.65c-2.86-31.18-14.57-60.13-24.12-89.71-9.75-30.18-18.01-58.94-34.02-86.75-16.12-27.99-46.6-61.39-50.94-94.83-3.95-30.34,24.11-52.9,44.55-70.4,23.27-19.92,44.43-37.89,43.18-70.83-.87-22.99-8.83-45.82-13.94-68.04-5.34-23.22-10.83-48.17-2.6-71.39,8.52-24.04,23.22-38.73,24.62-65.85"/><path d="M353.76,628.72c-2.86-31.33-15.12-60.26-24.98-89.87-9.86-29.61-17.64-58.08-33.66-85.32-16.14-27.44-46.02-59.11-51.15-91.83-4.72-30.07,22.94-52.33,43.25-69.6,23.1-19.65,44.7-37.18,44.14-69.83-.4-23.33-7.95-46.81-12.7-69.45-4.94-23.52-10.45-48.81-2.59-72.33,8.04-24.06,22.57-39.6,24.15-66.38"/><path d="M361.15,627.27c-3.32-31.59-16.17-60.62-26.35-90.44-9.98-29.24-17.58-57.3-33.85-84.06-15.9-26.15-46.11-56.97-50.49-88.72-4.09-29.61,23.94-51.23,43.91-68.03,23.07-19.41,43.73-36.6,43.4-68.83-.25-23.75-7.26-47.73-11.62-70.9-4.48-23.84-9.64-49.2-1.85-72.91,7.98-24.29,21.96-40.39,23.24-67.36"/><path d="M368.38,626.59c-3.3-31.7-16.71-60.69-27.2-90.49-10.07-28.61-17.18-56.38-33.46-82.5-15.86-25.45-45.5-54.46-50.59-85.36-4.83-29.28,22.88-50.53,42.69-67,22.88-19.04,44-35.76,44.37-67.62,.28-24.08-6.31-48.68-10.27-72.25-4.06-24.14-9.15-49.87-1.73-73.87,7.53-24.34,21.3-41.25,22.76-67.95"/><path d="M375.42,624.42c-3.9-32.58-18.32-62.15-29.24-92.78-10.38-29.11-17.85-56.38-35.1-82.45-15.21-22.98-41.94-48.86-46.89-76.73-5.33-30.03,21.92-50.8,42.84-67.55,20.61-16.51,42.22-33.69,43.56-62.29,1.24-26.47-5.81-54.55-9.62-80.57-3.38-23.13-7.4-47.25-.9-70.17,7.12-25.11,21.02-42.86,22.26-70.19"/><path d="M382.34,623.07c-3.86-32.66-18.83-62.15-30.06-92.72-10.45-28.43-17.37-55.34-34.68-80.69-15.13-22.16-41.45-46.4-46.97-73.36-6.06-29.64,20.97-49.96,41.67-66.28,20.42-16.1,42.56-32.76,44.56-60.88,1.9-26.69-4.73-55.56-8.08-81.9-2.98-23.4-6.89-47.83-.72-71.01,6.7-25.16,20.36-43.7,21.75-70.81"/><path d="M389.07,620.29c-4.16-31.06-18.3-58.89-29.38-87.9-11.97-31.34-18.94-59.61-39.02-87.12-14.7-20.15-38.24-40.74-44.24-65.74-7.06-29.41,22.59-49.82,42.36-65.46,23.48-18.57,43.93-34.25,44.29-66.54,.28-24.45-3.71-49.22-6.35-73.48-2.62-24.05-6.7-49.44-.71-73.24,6.51-25.87,20.07-45.4,21.26-73.1"/><path d="M395.72,618.37c-4.08-31.11-18.71-58.82-30.07-87.72-12.03-30.59-18.44-58.58-38.62-85.22-14.6-19.27-37.8-38.42-44.3-62.45-7.83-28.98,21.7-48.91,41.26-64.07,23.24-18.01,44.37-33.26,45.4-65,.8-24.75-2.73-49.99-4.94-74.6-2.19-24.33-6.08-50.01-.39-74.06,6.13-25.92,19.42-46.17,20.77-73.69"/><path d="M402.2,615.08c-4.69-31.92-20.28-60.09-32.05-89.8-11.21-28.29-16.91-53.84-35.81-78.48-14.39-18.75-44.18-41.45-46.83-67-2.7-26.01,25.47-44.24,43.41-57.55,20.79-15.43,43.01-31.45,44.68-59.38,1.52-25.38-1.53-51.27-3.34-76.56-1.78-24.81-5.78-51.83-.19-76.37,6.11-26.87,19.13-47.66,20.32-76"/><path d="M408.62,612.7c-4.55-31.93-20.61-59.94-32.64-89.51-11.22-27.57-16.46-53.01-35.41-76.78-14.28-17.92-43.73-38.84-46.94-63.51-3.34-25.67,24.72-43.36,42.43-56.21,20.55-14.9,43.48-30.36,45.75-57.77,2.12-25.58-.55-51.9-1.92-77.45-1.34-25.09-5.05-52.33,.27-77.13,5.77-26.88,18.51-48.36,19.87-76.52"/><path d="M414.9,609.01c-4.74-30.13-19.57-56.53-31.54-84.27-11.54-26.75-16.43-54.69-35.35-77.67-14.21-17.25-38.75-33.61-46.53-55.26-10.39-28.89,21.52-47.74,41-61.79,22.07-15.92,42.46-29.37,45.65-58.2,2.91-26.19,.11-54.17-.81-80.4-.9-25.59-3.89-52.62,2.25-77.75,6.25-25.6,16.98-46.44,18.12-73.42"/><path d="M421.15,606.25c-4.54-30.1-19.74-56.32-31.92-83.87-11.51-26.03-16.1-54.12-35-76.22-14.03-16.41-38.35-31.31-46.48-51.97-11.17-28.41,20.71-46.77,39.94-60.28,21.78-15.3,42.88-28.4,46.71-56.56,3.57-26.24,1.09-54.77,.59-81.13-.48-25.78-3.23-53.02,2.66-78.35,5.95-25.59,16.48-46.95,17.8-73.77"/><path d="M427.28,602.25c-5.09-30.83-21.19-57.49-33.72-85.75-11.64-26.24-16.02-53.4-36.29-74.91-14.24-15.11-40.55-29.49-45.15-51.2-5.48-25.89,24.56-41.98,42.49-54.04,21.65-14.57,43.88-28.54,46.32-56.54,2.44-27.96,1.83-56.36,1.7-84.4-.11-24.28-2.18-49.31,3.07-73.18,5.77-26.24,16.31-48.37,17.54-75.77"/><path d="M433.4,599.23c-4.78-30.77-21.24-57.21-33.94-85.24-11.59-25.59-15.55-52.85-35.85-73.51-14.04-14.29-40.3-27.31-45.21-48.18-6.03-25.61,23.7-41.07,41.5-52.75,21.28-13.96,44.43-27.54,47.37-54.91,3.01-28.06,2.78-56.75,3.07-84.94,.25-24.39-1.61-49.54,3.46-73.54,5.53-26.19,15.87-48.73,17.31-75.95"/><path d="M439.43,595.02c-5.29-31.47-22.66-58.34-35.61-87.07-11.82-26.21-14.97-51.56-37.09-71.85-13.63-12.5-35.94-23.21-41.39-42.1-7.47-25.91,23.48-40.93,41.19-52.45,19.05-12.39,42.6-25.25,46.81-49.58,4.85-28.01,3.94-57.85,4.66-86.2,.68-26.89-1.4-54.94,5.06-81.25,6.04-24.64,14.69-46.29,15.99-72.08"/><path d="M445.46,591.83c-5.06-32.05-23.33-59.21-36.52-88.39-10.88-24.07-13.61-47.78-33.47-66.51-12.56-11.84-37.68-22.74-43.67-40.41-8.92-26.31,22.09-41.26,40.38-52.7,20.49-12.81,41.89-24.8,47.64-49.5,5.94-25.52,4.58-54.77,5.65-80.77,1.14-27.8-.94-56.76,5.3-84.03,5.77-25.19,14.67-47.38,16.26-73.49"/><path d="M451.45,587.53c-5.32-32.03-23.89-59.01-37.11-88.2-10.74-23.71-13.02-46.88-33.21-64.83-12.51-11.12-37.58-21.03-43.17-38.49-8.3-25.91,23.31-40.18,41.21-51.14,20.47-12.53,41.55-24.2,47.34-48.66,6.08-25.7,5.25-54.93,6.65-81.14,1.48-27.66-.28-56.35,6-83.46,5.82-25.15,14.41-47.48,15.96-73.55"/><path d="M457.44,584.26c-4.95-32.61-24.44-59.8-37.78-89.44-9.45-21-11.44-44.14-29.33-60.19-13.82-12.4-42.42-21.69-46.83-42.12-5.04-23.39,25.68-36.71,41.23-46.18,19.67-11.98,44.06-24.03,48.56-48.59,5-27.28,5.95-55.98,7.71-83.62,1.64-25.79,.34-52.63,5.91-77.97,5.59-25.46,14.48-48.46,16.38-74.77"/><path d="M463.44,579.95c-5.12-32.54-24.83-59.5-38.1-89.12-9.29-20.72-10.83-43.42-29-58.88-13.87-11.8-42.27-20.09-46.24-40.54-4.47-23.06,26.57-35.89,41.87-45.06,19.62-11.75,43.69-23.55,48.17-47.88,5.04-27.4,6.58-55.98,8.62-83.73,1.88-25.55,.83-52,6.48-77.08,5.71-25.32,14.34-48.32,16.27-74.5"/><path d="M469.44,576.71c-4.18-30.25-21.97-55.21-34.69-82.43-10.56-22.59-12.78-49.91-33.44-66-14.03-10.92-37.92-17.08-43.22-35.86-6.76-23.99,23.41-36.09,40.05-45.81,17.12-10,41.94-21.95,48.07-42.41,8.42-28.08,8.21-62.68,10.57-91.66,1.92-23.54,1.13-47.78,6.17-70.94,5.58-25.61,14.53-49.08,16.87-75.46"/><path d="M475.5,572.51c-4.23-30.14-22.15-54.87-34.74-82.04-10.37-22.38-12.09-49.28-32.99-64.86-14.12-10.54-37.86-16.11-42.71-35.13-6.07-23.81,24.11-35.37,40.62-44.96,17.04-9.89,41.6-21.71,47.61-42.01,8.35-28.21,8.75-62.26,11.35-91.34,2.07-23.2,1.42-46.95,6.62-69.75,5.79-25.35,14.54-48.67,16.99-74.8"/><path d="M481.82,569.23c-3.66-30.66-22.49-55.72-35.07-83.3-10.5-23.03-12.06-48.38-33.75-64.18-12.26-8.93-34.69-15.22-39.76-31.38-7.59-24.17,22.97-36.35,39.39-45.94,18.59-10.86,40.71-21.63,48.26-42.64,8.99-25.01,8.83-57.82,11.55-84.13,2.46-23.82,1.57-48.49,6.73-71.93,5.64-25.6,14.86-49.14,17.58-75.45"/><path d="M488.27,565.09c-3.86-30.67-22.92-55.72-35.42-83.39-10.51-23.26-12.12-46.56-33.17-63.13-11.78-9.27-33.5-15.07-38.2-31.26-6.89-23.73,23.44-35.78,39.56-45.28,18.44-10.88,40.04-21.7,47.43-42.58,8.74-24.7,9.2-56.64,12.18-82.58,2.7-23.42,1.77-47.62,7.02-70.65,5.78-25.33,14.91-48.57,17.58-74.67"/><path d="M494.71,562.05c-3.07-28.44-19.93-52-32.35-77.19-11.26-22.84-12.96-50.05-32.99-67.21-12.01-10.29-31.34-15.96-37.8-31.43-9.97-23.87,20.17-36.51,36.76-46.31,17.33-10.24,41.77-22.59,47.61-43.28,6.69-23.66,8.7-50.59,12.05-74.91,3.57-25.95,2.65-52.7,9.04-78.14,5.9-23.5,13.91-45.28,16.62-69.57"/><path d="M501.33,558.25c-3.42-28.64-20.56-52.37-33.07-77.81-11.1-22.57-12.75-49.24-32.17-66.53-11.44-10.19-29.73-16.28-35.63-31.41-9.14-23.48,20.01-36.05,36.33-45.98,17.1-10.4,40.45-22.88,46.12-43.36,6.44-23.26,9.28-49,13.02-72.83,3.98-25.36,3.16-51.43,9.55-76.32,5.98-23.3,13.91-44.85,16.55-68.97"/><path d="M507.93,555.57c-2.89-28.73-20.45-52.63-33.05-78.01-11.04-22.24-12.92-49.19-31.22-66.88-10.72-10.36-27.65-16.78-33.54-31.27-9.39-23.12,17.8-35.77,33.99-45.96,16.52-10.41,39.38-23.21,45.31-42.96,6.69-22.28,9.9-47.25,14.07-70.15,4.53-24.83,3.86-50.42,10.12-74.85,5.92-23.07,13.88-44.44,16.66-68.3"/><path d="M514.77,552.23c-3.65-29.87-22.17-54.57-35.13-81.16-10.04-20.59-11.87-45.52-27.36-62.92-9.65-10.84-26.48-17.64-32.44-31.56-9.95-23.27,16.73-36.63,32.69-47.4,17.46-11.79,37.41-23.79,43.73-44.65,6.74-22.24,11.13-46.6,15.62-69.41,4.43-22.49,4.21-45.57,9.71-67.78,5.84-23.58,14.13-45,16.93-69.38"/><path d="M521.61,550.02c-3.24-30.11-22.29-55.19-35.44-81.83-10.16-20.58-12.1-45.51-26.48-63.62-8.89-11.19-23.13-18.44-29.54-31.61-10.89-22.38,14.68-36.8,29.88-47.64,16.67-11.88,35.8-24.2,42.28-44.24,6.88-21.3,11.94-44.45,16.97-66.28,5.05-21.91,5.01-44.41,10.35-66.17,5.75-23.39,14.06-44.7,16.97-68.84"/><path d="M528.71,547.23c-3.98-30.69-23.38-56.19-36.85-83.47-10.16-20.58-12.06-44.92-25.36-63.67-7.81-11-21.32-19.32-26.28-32.24-8.67-22.57,12.9-35.62,28.43-47.49,16.03-12.24,33.46-24.74,39.89-44.35,6.74-20.57,12.81-42.19,18.36-63.14,5.62-21.2,5.71-42.99,10.99-64.18,5.79-23.28,13.96-44.45,16.77-68.51"/><path d="M535.85,545.63c-3.96-31.94-24.68-58.46-38.61-86.82-10.22-20.8-12.21-44.79-24.5-64.42-7.1-11.34-19.92-21.34-23.1-34.89-4.86-20.71,13.24-32.07,26.85-43.57,15.29-12.92,32.03-25.68,38.04-45.32,5.69-18.61,12.46-36.77,18.52-55.25,6.94-21.18,7.37-42.53,12.4-64.01,5.55-23.71,14.13-45.32,17.12-69.72"/><path d="M543.27,543.51c-4.91-32.71-26.03-59.78-40.39-89-10.29-20.94-12.36-44.25-22.96-64.83-5.96-11.57-16.92-22.78-19.48-35.88-3.96-20.24,11.67-31.32,24.75-43.39,14.42-13.31,29.24-26.27,35.28-45.31,5.65-17.81,13.41-34.66,20-52.12,7.7-20.37,8.18-40.87,13.12-61.81,5.57-23.65,13.98-45.17,16.83-69.54"/><path d="M550.76,542.63c-4.79-33.31-26.59-61.03-41.38-90.62-10.77-21.54-13.2-44.28-21.82-66.36-4.64-11.89-13.35-23.99-15.74-36.61-3.78-19.99,8.76-30.71,21.37-43.61,13.23-13.53,26.65-26.75,32.83-44.87,5.78-16.97,14.14-32.56,21.36-48.92,8.67-19.62,9.29-39.13,14.03-59.7,5.42-23.56,13.78-45.09,16.69-69.31"/><path d="M558.56,541.28c-5.92-34.18-28.03-62.82-43.53-93.31-11.03-21.69-13.82-43.97-20.61-66.9-3.61-12.18-10.69-25.01-12.69-37.51-3.12-19.51,7.67-30.26,19.52-43.67,24-27.17,37.14-58.69,53.54-90.79,9.58-18.77,10.11-37.46,14.72-57.61,5.39-23.55,13.52-45.07,16.23-69.31"/><path d="M566.46,541.25c-5.83-34.99-28.66-64.46-44.63-95.53-11.42-22.23-15.17-44.38-20.34-68.42-2.69-12.52-8.04-25.23-10.1-37.74-3.18-19.2,5.5-29.96,16.6-44.04,21.46-27.23,35.71-58.11,53.46-87.83,10.81-18.11,11.61-35.61,16.04-55.75,5.17-23.52,13.19-45.14,15.89-69.29"/><path d="M573.91,540.71c-6.93-36.06-30.16-66.36-46.69-98.61-11.46-22.37-15.94-44.5-19.06-69.15-1.67-13.18-5.36-25.75-7.23-38.75-2.66-18.57,4.29-29.44,14.29-43.93,19.21-27.84,33.68-57.24,52.98-85.07,11.98-17.29,12.62-34.16,17.09-54.14,5.27-23.58,13.2-45.25,15.83-69.48"/><path d="M580.6,541.13c-6.74-36.79-30.66-67.86-47.6-100.62-11.85-22.92-17.52-45.29-18.36-70.97-.46-14.09-1.58-25.68-3.81-39.57-2.88-18.02,2.48-29.47,11.22-44.4,8.63-14.73,16-29.82,23.75-44.87,7.4-14.37,18.44-25.04,28.56-37.42,13.4-16.4,14.07-32.27,18.49-52.29,5.22-23.6,13.19-45.39,15.97-69.6"/><path d="M587.53,540.54c-12.93-62.62-70.13-108.08-66.29-175.36,1.71-29.89-5.27-57.54,8.16-85.28,7.18-14.82,13.45-30.7,21.31-45.04,7.64-13.93,19.77-23.23,30.54-34.54,14.66-15.39,15.01-30.8,19.48-50.75,5.31-23.69,13.18-45.55,15.89-69.87"/><path d="M594.56,540.87c-12.44-62.95-75.92-111.47-66.66-179.26,2.14-15.7,4.78-25.64,2.83-41.62-2.08-17.07-.2-29.35,5.77-45.09,5.63-14.85,10.88-31.38,18.76-45.14,7.82-13.66,20.73-21.74,32.24-31.91,16.15-14.28,16.45-28.74,20.9-48.87,5.25-23.73,13.14-45.74,15.98-70.06"/><path d="M601.81,540.17c-13.68-62.21-81.43-115.68-66.96-183,3.55-16.52,7.73-25.58,5.87-42.82-1.78-16.49-1.21-29.46,3.23-45.27,4.16-14.81,8.38-32.23,16.45-45.41,8.14-13.28,22.15-20.01,34.2-29.07,17.4-13.09,17.3-27.33,21.79-47.49,5.31-23.84,13.1-45.95,15.86-70.41"/><path d="M609.15,540.44c-13.09-62.18-86.15-119.85-67.47-186.79,4.71-16.88,10.82-25.49,9.19-43.57-1.47-16.24-2.51-29.98,.4-46.01,2.68-14.77,5.73-32.82,13.87-45.68,8.32-13.15,23.17-18.72,35.81-26.62,18.85-11.78,18.71-25.18,23.2-45.65,5.24-23.91,13.03-46.18,15.9-70.67"/><path d="M616.67,539.63c-9.13-40.22-34.66-74.64-53.8-110.67-12.97-24.42-23.79-49.67-14.81-77.32,4.98-15.34,13.71-25.49,13.29-42.24-.44-17.5-4.17-33.55-2.62-51.23,1.28-14.51,3.66-32.21,11.5-44.7,9.12-14.54,26.09-18.38,40.28-26.27,18.8-10.46,17.58-25.37,22.07-45,5.37-23.46,12.68-45.37,15.37-69.45"/><path d="M624.29,539.84c-8.84-40.85-35.03-75.94-54.5-112.37-13.15-24.61-25.58-51.17-14.87-79.05,5.94-15.45,16.3-25.66,16.46-42.91,.17-17.43-5.17-34.54-5.15-52.16,.01-14.47,1.15-32.53,9.07-45.02,9.28-14.64,27.1-17.28,41.84-23.99,20.07-9.14,18.78-23.42,23.29-43.48,5.29-23.55,12.59-45.64,15.37-69.77"/><path d="M632.06,538.94c-9.84-41.75-36.34-77.57-56.3-115.04-13.23-24.83-25.79-51.81-13.44-79.55,7.04-15.82,18.68-25.77,18.92-43.96,.23-17.44-6.14-35-7.47-52.48-1.09-14.38-1.1-33.17,7.24-45.5,9.73-14.39,28.76-15.65,43.74-21.37,20.88-7.97,19.3-22.72,23.81-42.81,5.31-23.69,12.49-45.93,15.17-70.22"/><path d="M639.91,539.09c-9.46-42.29-36.58-78.67-56.81-116.44-13.5-25.2-27.21-53.02-13.73-81.13,7.65-15.94,20.93-25.91,21.72-44.53,.75-17.71-7.01-35.98-9.68-53.45-2.18-14.31-3.41-33.38,5.03-45.91,9.85-14.63,29.71-14.82,45.09-19.53,21.95-6.72,20.41-20.87,24.93-41.51,5.22-23.8,12.37-46.23,15.14-70.59"/><path d="M647.88,538.13c-10.38-43.07-37.77-80.1-58.41-118.8-13.5-25.3-27.28-53.6-12.39-81.41,8.66-16.16,22.99-26.03,23.66-45.49,.62-18.02-8.01-36.32-11.78-53.76-3.08-14.22-5.29-33.95,3.64-46.43,10.35-14.46,31.26-13.36,46.81-17.32,22.56-5.73,20.75-20.55,25.26-41.21,5.23-23.96,12.25-46.56,14.91-71.09"/><path d="M655.93,538.23c-9.45-42.43-36.52-78.93-57.04-116.78-15.37-28.35-30.79-57.64-12.78-88.19,9.6-16.28,23.99-25.6,23.92-45.78-.06-17.92-8.62-35.25-13.28-52.28-3.59-13.11-7.7-34.13,.68-46.55,10.06-14.9,31.18-13.14,46.59-16.13,25.93-5.02,23.74-18.73,28.97-42.24,5.22-23.45,11.86-45.91,14.48-69.91"/><path d="M664.09,537.21c-10.26-43.07-37.53-80.09-58.37-118.7-15.43-28.59-30.52-57.92-11.46-88.22,10.34-16.45,25.42-25.6,25.05-46.48-.32-18.38-9.58-35.54-15.08-52.7-4.19-13.1-8.99-34.5-.14-47.06,10.49-14.89,32.47-12.03,48.03-14.51,26.39-4.21,23.94-18.79,29.13-42.32,5.21-23.62,11.71-46.27,14.22-70.44"/><path d="M672.29,537.27c-9.57-43.26-37.35-80.53-58.25-119.11-15.56-28.71-31.72-58.85-12.24-89.39,10.6-16.62,26.79-25.72,26.59-46.94-.17-18.83-10.08-36.13-16.33-53.37-4.77-13.15-10.49-34.64-1.62-47.63,10.41-15.24,32.97-12.37,48.78-13.98,27.21-2.77,24.95-17.93,30.04-41.62,5.1-23.76,11.56-46.61,14.12-70.88"/><path d="M680.59,536.22c-10.25-43.72-38.15-81.34-59.27-120.51-15.51-28.76-31.22-58.9-11.15-89.07,11.18-16.81,27.65-25.66,26.96-47.49-.6-19.25-10.85-36.3-17.66-53.72-5.2-13.3-11.16-34.95-1.81-48.13,10.88-15.34,33.86-11.63,49.93-13,27.48-2.33,24.92-18.65,29.93-42.25,5.08-23.94,11.39-46.98,13.84-71.44"/><path d="M688.91,536.23c-9.34-43.68-37.71-81.39-58.75-120.29-15.47-28.59-32.22-59.59-12.25-89.86,11.22-17.01,28.47-25.74,27.78-47.8-.61-19.56-11.08-36.78-18.36-54.28-5.64-13.55-12.01-34.96-2.67-48.67,10.95-16.08,33.73-12.15,50.33-13.26,28.1-1.87,25.63-17.9,30.61-42.06,4.97-24.09,11.22-47.34,13.71-71.91"/><path d="M697.2,535.15c-11.13-46.83-42.01-87.44-63.83-129.83-14.24-27.67-25.8-55.99-5.07-83.41,11.99-15.85,26.62-25.13,24.97-46.77-1.45-18.99-11.72-36.05-18.71-53.29-5.72-14.09-10.78-33.29-2.1-47.26,11.2-18.03,35.8-12.79,53.85-14.83,24.31-2.75,22.34-17.4,26.36-38.4,4.93-25.82,11.86-50.66,14.36-76.93"/><path d="M705.49,535.15c-10.75-46.48-41.19-86.94-62.82-128.93-14.35-27.86-26.39-56.14-6.22-84.21,11.36-15.8,25.59-25.38,24.34-46.48-1.13-19.08-11.82-36.7-18.53-54.16-5.47-14.24-10.51-33.45-2.05-47.55,11.09-18.5,35.37-13.22,53.52-16.05,24.31-3.79,22.66-16.4,26.71-38.3,4.8-25.99,11.66-51.05,14.21-77.46"/><path d="M713.81,534.02c-11.67-46.36-41.15-86.6-62.64-128.86-14.21-27.96-25.12-55.47-5.55-83.55,11.08-15.89,24-25.61,22.4-46.5-1.46-19.07-12.13-36.81-18.33-54.58-5.05-14.48-9.66-34.08-.88-48.02,11.4-18.09,35.53-13.24,53.61-16.67,23.87-4.52,22.09-17.86,26.02-39.42,4.78-26.18,11.47-51.46,13.9-78.06"/><path d="M722.19,534.04c-11.05-45.8-39.94-85.72-61.04-127.39-14.13-27.91-25.44-55.36-6.89-83.91,10.29-15.83,22.4-25.68,21.03-45.91-1.3-19.24-12.05-37.5-17.78-55.67-4.67-14.81-8.96-34.47-.36-48.66,11.09-18.29,34.83-14.45,52.94-18.31,23.74-5.06,22.29-17.85,26.13-39.61,4.65-26.34,11.26-51.84,13.74-78.57"/><path d="M730.52,532.88c-11.2-44.41-38.34-83.27-58.81-123.84-13.85-27.44-25.8-54.36-9.4-83.33,9.99-17.65,22.5-27.64,19.69-49.52-2.41-18.82-11.99-36.51-16.92-54.83-3.74-13.88-8.16-35.47,.11-48.82,12.12-19.58,37.62-14.53,56.3-20.5,21.58-6.9,19.43-21.95,23.04-42.14,4.64-25.94,10.84-51.11,13.14-77.45"/><path d="M738.93,532.91c-10.41-43.7-36.83-82.07-56.75-121.92-13.97-27.95-25.12-53.48-10.67-83.33,8.64-17.84,20.34-27.42,17.54-48.77-2.5-19.07-11.73-37.16-16.04-55.97-3.29-14.34-7.17-36.04,.98-49.69,11.82-19.81,36.63-16,55.35-22.59,21.37-7.53,19.44-22.15,22.96-42.5,4.51-26.09,10.64-51.46,12.98-77.91"/><path d="M747.26,531.75c-10.69-43.17-36.09-81.12-55.49-120.78-13.48-27.57-23.42-52.5-10.35-81.96,7.87-17.75,17.66-27.48,14.41-48.17-3.03-19.31-11.63-37.6-15.17-56.98-2.71-14.84-5.6-36.84,2.92-50.6,12.07-19.51,36.17-16.43,54.7-24.09,20.54-8.49,18.58-23.9,21.99-43.9,4.47-26.25,10.44-51.81,12.68-78.43"/><path d="M755.65,531.79c-9.77-42.32-34.33-79.65-53.04-118.48-13.19-27.36-22.98-52.06-11.63-81.64,6.7-17.49,15.03-27.46,11.73-47.2-3.3-19.71-11.28-38.26-14.08-58.24-2.16-15.43-4.33-37.48,4.14-51.67,11.79-19.75,35.03-17.99,53.51-26.45,20.17-9.23,18.43-24.32,21.75-44.44,4.35-26.39,10.24-52.13,12.52-78.85"/><path d="M763.94,530.63c-9.84-41.65-33.33-78.46-51.37-116.94-12.6-26.87-21.07-50.96-11.52-80.03,5.69-17.32,11.93-27.49,8.22-46.42-3.93-20.09-11-38.81-12.9-59.43-1.48-16.01-2.55-38.29,6.3-52.7,11.97-19.49,34.5-18.59,52.61-28.23,19.21-10.22,17.47-26.12,20.69-45.92,4.31-26.54,10.05-52.45,12.22-79.33"/><path d="M772.28,530.7c-13.86-63.83-78.92-125.92-61.42-193.83,4.36-16.92,8.96-27.4,5.12-45.27-4.41-20.56-10.62-39.51-11.7-60.74-.84-16.68-1.07-38.95,7.81-53.92,11.7-19.72,33.34-20.2,51.27-30.75,18.71-11,17.19-26.69,20.33-46.59,4.2-26.66,9.85-52.73,12.06-79.7"/><path d="M780.5,529.56c-13.73-63.42-71.26-120.61-59.93-188.11,3.08-18.32,6.07-29.36,1.42-47.92-5.13-20.51-9.86-39.16-9.89-60.55-.02-18.82,1.22-42.22,12.21-58.39,10.71-15.77,30.35-19.53,45.91-28.34,20.13-11.4,18.34-29.95,21.64-50.77,4.16-26.23,9.46-51.92,11.51-78.46"/><path d="M788.76,529.65c-12.52-63.95-64.16-117.17-58.01-184.65,1.6-17.62,2.57-29.13-2.16-46.48-5.7-20.9-9.49-40.1-8.64-61.95,.76-19.47,2.93-42.98,13.89-59.81,10.47-16.07,29.31-20.99,44.6-30.71,19.45-12.35,17.9-30.7,21.12-51.64,4.05-26.33,9.27-52.16,11.36-78.77"/><path d="M796.88,528.55c-12.37-63.45-56.53-114.35-55.85-180.75,.38-37.51-16.38-70.51-13.22-108.72,1.66-20.07,4.93-43.69,16.23-60.96,10.48-16.02,28.72-21.85,43.47-32.61,18.31-13.36,16.76-32.48,19.9-53.24,4.01-26.44,9.09-52.41,11.09-79.13"/><path d="M805,528.67c-6.86-39.63-27.38-74.67-41.51-111.97-8.23-21.72-10.44-42.23-12.22-65.12-2.96-37.96-20.44-69.03-15.74-108.52,2.47-20.73,6.7-44.41,18.04-62.4,10.28-16.3,27.78-23.31,42.15-34.95,17.58-14.24,16.26-33.23,19.33-54.14,3.9-26.53,8.92-52.6,10.95-79.39"/><path d="M813,527.61c-6.58-38.62-25.81-72.99-38.99-109.58-7.59-21.09-8.79-41.68-12.58-63.45-2.71-15.57-8.89-28.07-14.13-42.81-7.67-21.57-7.46-43.61-3.9-65.99,3.38-21.28,8.68-45.01,20.34-63.5,10.26-16.28,27.29-24.24,40.99-36.85,16.44-15.12,15.13-34.84,18.14-55.65,3.86-26.62,8.74-52.81,10.69-79.69"/><path d="M820.96,527.77c-5.56-37.48-23.54-71.04-35.84-106.56-7.18-20.74-7.8-41.84-13.47-62.76-4.04-14.91-12.31-27.04-17.88-41.25-8.48-21.62-7.06-44.84-2.8-67.2,4.2-22.04,10.6-45.45,22.2-64.9,9.92-16.62,26.5-25.71,39.71-39.08,15.72-15.9,14.6-35.54,17.56-56.53,3.76-26.68,8.57-52.96,10.56-79.87"/><path d="M828.79,526.78c-5.26-36.48-21.96-69.36-33.3-104.15-6.53-20.02-6.49-41.55-13.91-61.11-5.48-14.45-15.99-25.96-21.84-40.15-8.98-21.76-5.98-46.29-.94-68.53,5.09-22.5,12.5-45.92,24.37-65.88,9.89-16.63,26.08-26.67,38.58-40.88,14.63-16.64,13.52-36.94,16.44-57.88,3.73-26.75,8.41-53.12,10.32-80.11"/><path d="M836.55,526.99c-4.35-35.36-19.77-67.46-30.28-101.23-6.11-19.64-5.72-41.86-14.61-60.43-6.72-14.04-19.03-24.42-25.46-38.6-9.84-21.68-5.61-47.49-.01-69.57,5.85-23.08,14.23-46.47,26.2-67.16,9.77-16.9,25.37-28.01,37.42-42.93,13.96-17.29,13.03-37.55,15.9-58.68,3.64-26.79,8.25-53.22,10.21-80.22"/><path d="M844.17,526.06c-4.09-34.39-18.24-65.86-27.83-98.89-5.55-19.12-4.8-41.49-15.09-58.86-8.15-13.76-22.27-22.87-29.14-37.56-10.22-21.84-4.43-48.92,1.8-70.82,6.67-23.43,15.98-46.8,28.18-67.95,9.77-16.94,25.03-28.94,36.38-44.55,12.99-17.87,12.05-38.7,14.89-59.83,3.6-26.83,8.1-53.33,9.99-80.38"/><path d="M851.7,526.33c-3.34-33.33-16.21-64.08-25.02-96.18-5.18-18.87-4.17-41.66-15.5-58.19-9.23-13.45-24.76-21.08-32.35-35.94-11.09-21.71-4.23-49.99,2.39-71.71,7.29-23.93,17.43-47.39,29.79-69.15,9.77-17.19,24.58-30.12,35.58-46.31,12.5-18.39,11.73-39.12,14.48-60.48,3.45-26.85,7.82-53.38,9.69-80.42"/><path d="M859.09,525.48c-2.92-32.37-14.42-62.51-22.21-93.87-4.64-18.69-3.26-41-15.86-56.57-10.61-13.12-27.63-19.19-35.73-34.75-11.38-21.88-3-51.43,4.14-72.95,8.03-24.2,19.01-47.66,31.57-69.84,9.77-17.26,24.23-30.97,34.56-47.75,11.61-18.86,10.78-40.05,13.45-61.42,3.36-26.86,7.54-53.42,9.28-80.47"/><path d="M866.35,525.81c-1.81-31.26-11.71-60.68-18.37-91.1-4.12-18.82-2.34-40.92-16.07-55.9-11.79-12.86-30.4-17.37-39.5-33.22-12.38-21.58-2.81-52.4,4.63-73.59,8.66-24.65,20.57-48.04,33.23-70.85,9.7-17.48,23.67-32,33.59-49.26,11.07-19.27,10.32-40.41,12.9-61.93,3.22-26.84,7.29-53.4,9.02-80.4"/><path d="M873.49,525.05c-1.24-30.31-9.61-59.15-15.13-88.84-3.56-19.12-1.39-40.07-16.49-54.41-13.14-12.47-33.3-15.55-42.97-32.19-12.63-21.73-1.61-53.68,6.26-74.64,9.31-24.78,21.95-48.13,34.79-71.23,9.75-17.54,23.38-32.68,32.71-50.41,10.3-19.59,9.51-41.09,12.03-62.61,3.15-26.82,7.05-53.38,8.69-80.36"/><path d="M880.44,525.47c-.45-27.55-6.47-53.94-10.9-81.03-3.47-21.2-.59-46.14-19.11-60.52-13.92-10.8-32.97-13.17-43.36-28.57-14.61-21.67-3.27-54.15,5.42-76.07,9.39-23.67,21.99-45.56,34.21-67.82,10.77-19.61,26.18-37.4,35.34-57.77,8.44-18.75,7.93-38.75,10.17-58.86,3.04-27.33,7-54.42,8.68-81.9"/><path d="M887.27,524.8c-.1-26.8-4.85-52.75-8.36-79.24-2.86-21.59,.39-45.35-19.42-58.98-14.94-10.27-35.08-11.75-45.91-27.7-14.79-21.79-2.3-55.11,6.77-76.87,9.87-23.68,22.96-45.6,35.42-67.95,10.91-19.57,26.06-37.9,34.72-58.59,7.9-18.89,7.39-39.1,9.58-59.17,2.99-27.28,6.81-54.32,8.42-81.73"/><path d="M893.88,525.32c.36-26.06-3.13-51.52-5.84-77.39-2.26-21.64,1.39-45.33-18.98-58.45-15.58-10.03-36.67-10.51-48.26-26.47-15.61-21.51-2.63-55.26,6.62-76.9,19.13-44.75,52.73-82.93,70.89-127.66,7.7-18.98,7.31-39.04,9.46-59.13,2.9-27.18,6.64-54.14,8.27-81.44"/><path d="M901.16,524.73c.32-25.48-2.22-50.59-4.36-75.96-1.84-21.84,1.86-44.77-19.31-57.17-16.26-9.53-38.07-9.36-49.86-25.78-15.6-21.74-1.83-55.9,7.73-77.44,19.67-44.29,53.96-82.8,71.1-127.94,7.21-19,6.82-39.18,8.97-59.15,2.92-27.06,6.59-53.91,8.22-81.09"/><path d="M909.04,525.28c.77-25.43-.51-50.67-1.79-76.06-1.19-23.65,2.19-44.36-21.31-56.32-15.62-7.95-37.67-7.96-49.74-22.35-17.72-21.14-2.68-57.33,6.86-78.35,19.84-43.76,52.16-81.65,70.27-126.11,7.8-19.14,7.34-39.49,9.48-59.73,2.89-27.44,6.67-54.66,8.43-82.22"/><path d="M916.85,524.62c.94-25.03,.82-50.01,.24-75.04-.55-23.7,2.74-44.84-21.98-55.47-16.17-6.96-39.61-7.47-51.62-22.12-17.67-21.56-1.65-58.3,8.25-79.31,20.32-43.13,53.53-80.84,70.31-125.59,7.12-18.97,6.61-39.07,8.69-58.98,2.83-27.05,6.46-53.91,8.13-81.08"/><path d="M925.01,525.12c.91-24.89,.89-49.73,.36-74.63-.5-23.46,2.9-44.65-21.52-55.32-16.22-7.09-39.58-7.48-52.03-21.7-18.24-20.84-2.75-57.53,6.9-78.34,20.04-43.21,53.83-80.29,70.37-125.08,7.01-18.99,6.51-38.62,8.53-58.5,2.73-26.87,7.05-53.34,8.29-80.37"/><path d="M933.16,524.41c.84-24.79,.79-49.53,.25-74.33-.51-23.64,2.49-43.81-22.04-54.35-16.19-6.96-39.61-7.67-51.88-21.97-17.85-20.78-2.59-57.26,7.01-77.92,19.84-42.72,54.03-79.07,69.5-123.77,6.59-19.04,5.9-38.46,8.03-58.23,2.87-26.71,8.07-52.67,8.9-79.63"/><path d="M941.13,524.85c.76-22.99,.81-45.95,.36-68.94-.45-22.84,4.16-46.52-19.2-58.11-16.72-8.3-39.38-8.45-52.89-22.51-19.4-20.2-5.82-55.51,4.1-77.34,18.99-41.77,52.56-76.51,67.69-120.03,7.4-21.28,6.37-43.09,9.32-65.14,3.33-24.93,8.74-48.82,9.45-74.09"/><path d="M949.05,524.1c.7-22.88,.73-45.74,.29-68.63-.45-22.93,3.9-45.71-19.5-57.26-16.63-8.21-39.22-8.78-52.49-22.92-18.9-20.13-5.84-54.94,3.99-76.62,18.7-41.23,52.49-75.17,66.08-118.73,6.63-21.26,5.3-43.06,8.73-64.81,3.91-24.73,10.26-47.87,10.81-73.11"/><path d="M956.82,524.49c.69-22.74,.73-45.47,.31-68.21-.42-22.57,4.03-45.46-18.72-57.26-16.47-8.54-38.67-9.26-52.14-23.07-19.09-19.55-7.32-53.38,2.25-75.02,18.15-41.06,52.3-74.13,64.47-117.85,5.91-21.21,4.33-42.95,8.25-64.43,4.47-24.45,12.02-46.76,12.78-71.89"/><path d="M964.54,523.69c.66-23.17,.67-46.31,.24-69.48-.38-20.22,3.44-42.19-16.16-53.84-16.44-9.77-38.75-9.97-53.32-23.27-20.37-18.59-7.97-54.44,1.2-75.28,18.3-41.55,52.64-74.19,62.55-119.35,4.34-19.78,2.84-40.08,6.79-59.87,5-25.01,14.29-46.32,15.16-72.29"/><path d="M972.15,524.04c.65-23.02,.68-46.02,.27-69.05-.36-20.37,3.32-41.33-15.33-53.89-15.87-10.69-37.9-10.7-52.66-23.71-20.39-17.97-9.58-52.54-.67-73.4,17.73-41.52,52.09-72.93,60.25-118.43,3.54-19.74,1.67-39.99,6.19-59.54,5.72-24.74,16.48-44.86,17.87-70.82"/><path d="M979.73,523.22c.62-23.46,.63-46.88,.23-70.35-.37-21.43,3.04-40.89-17.68-52.84-16.29-9.4-39.66-11.07-52.51-26.2-15.7-18.48-6.37-50.09,1.89-69.59,17.03-40.23,50.21-69.38,56.87-113.84,3.01-20.13,.53-40.71,5.58-60.5,6.43-25.22,19.25-44.23,20.96-71.02"/><path d="M987.22,523.54c.62-23.31,.66-46.59,.29-69.9-.33-20.97,3.21-40.75-16.68-53.01-16.01-9.87-38.77-11.84-51.75-26.66-15.76-17.98-7.99-48.22-.02-67.75,16.42-40.25,49.65-67.93,54.2-112.76,2.05-20.17-1.11-40.62,4.62-60.27,7.26-24.94,21.76-42.52,24.27-69.34"/><path d="M994.69,522.7c.59-23.18,.63-46.34,.29-69.53-.31-20.96,3.04-40.06-16.57-52.51-15.8-10.03-38.12-12.63-50.8-27.57-15.17-17.88-8.41-46.98-.57-66.39,16.24-40.23,48.82-65.97,50.85-111.36,.91-20.32-2.95-40.42,3.86-60,8.61-24.77,24.48-40.49,27.39-67.74"/><path d="M1002.1,523c.6-23.61,.65-47.2,.33-70.81-.3-22.28,2.58-39.61-17.89-52.41-15.04-9.41-33.66-12.89-46.24-26.08-16.52-17.32-11.48-44.74-3.67-64.9,16.08-41.53,49.1-66.01,47.74-113.32-.61-21.15-5.34-41.43,4.41-61.27,10.72-21.8,25.67-36.7,29.4-61.67"/><path d="M1009.51,522.15c.57-23.49,.63-46.96,.35-70.45-.27-22.21,2.39-38.99-17.65-52.05-14.77-9.62-33-13.68-45.27-26.97-15.9-17.23-11.94-43.5-4.27-63.55,7.98-20.86,21.81-37.48,33.67-56.03,10.93-17.09,11.9-36.1,10.19-55.89-1.86-21.49-7.2-41.03,4.13-60.85,12.18-21.31,28.33-34.8,32.54-60.13"/><path d="M1016.88,522.43c.59-23.94,.66-47.87,.4-71.82-.21-19.26,2.54-36.38-14.47-49-14.17-10.51-32.88-15.05-45.54-27.74-16.57-16.61-14.53-42.97-7.22-63.3,7.47-20.77,22.14-36.85,33.21-55.51,9.61-16.19,10.22-33.46,7.91-51.84-2.72-21.63-10.4-42.19,1.77-62.39,13.04-21.63,31.62-33.85,37.28-59.78"/><path d="M1024.28,521.58c.56-23.83,.65-47.65,.42-71.48-.18-19.2,2.4-35.83-14.22-48.7-13.88-10.75-32.2-15.87-44.54-28.73-15.83-16.49-15.01-41.61-7.89-61.79,7.15-20.28,21.94-35.5,32.33-53.84,9.31-16.42,8.28-34.08,4.93-52.21-4.03-21.82-12.61-41.91,1.3-62.03,14.57-21.07,34.37-31.83,40.63-58.17"/><path d="M1031.64,521.86c.56-23.71,.67-47.4,.49-71.12-.15-19.12,2.41-35.45-13.17-48.99-13.21-11.47-31.19-16.78-43.5-29.49-15.52-16.03-16.48-39.69-9.83-59.88,6.57-19.94,21.21-34.51,31.24-52.38,9.33-16.63,7.09-34.43,2.81-52.44-5.15-21.7-15.25-41.94-.07-61.94,15.64-20.61,36.95-30.06,44.63-56.35"/><path d="M1039.06,521.02c.49-21.88,.64-43.76,.54-65.65-.09-18.54,3.42-38.09-10.63-52.24-14.08-14.18-35.02-19.59-47.76-35.59-12.43-15.61-13.35-36.4-7.38-54.76,6.6-20.32,21.81-33.62,31.33-52.01,8.86-17.12,2.7-37.73-2.4-54.86-5.88-19.73-15.42-38.73-.63-57.1,16.89-20.97,40.49-28.83,49.16-56.18"/><path d="M1046.47,521.3c.49-21.79,.66-43.58,.59-65.38-.06-18.66,3.25-37.57-9.7-52.44-12.98-14.91-33.92-20.81-46.65-36.41-12.28-15.05-14.73-34.64-9.26-52.95,6-20.08,21.06-32.6,30.28-50.58,8.88-17.31,1.19-38.32-4.65-55.12-6.76-19.45-17.85-38.87-2.03-57.08,17.9-20.61,42.95-27.18,53.21-54.37"/><path d="M1053.96,520.48c.46-21.73,.64-43.46,.59-65.19-.04-18.66,3.15-37.13-9.49-52.17-12.68-15.09-33.06-21.85-45.61-37.47-11.86-14.75-15.3-33.32-10.04-51.46,5.67-19.55,21.15-31.29,29.42-48.95,8.31-17.74-1.23-39.17-7.78-55.62-7.77-19.49-19.69-38.72-2.18-56.73,19.36-19.91,45.59-25.23,56.44-52.87"/><path d="M1061.45,520.78c.46-22.24,.65-44.48,.62-66.73-.02-18.8,3.03-37.61-10.46-52.57-24.24-26.86-66.19-41.67-54.82-86.29,4.5-17.63,17.35-28.82,26.35-43.72,10.94-18.12,1.56-38.48-5.94-55.99-8.1-18.9-24.05-40.74-6.74-58.95,20.36-21.42,48.63-24.2,61.78-52.55"/><path d="M1069.04,519.98c.43-22.21,.62-44.41,.62-66.62,0-18.81,2.9-37.21-10.25-52.38-22.88-26.39-65.17-42.98-54.72-85.78,4.24-17.38,17.66-27.43,25.75-42.27,10.24-18.77-.63-39.12-8.9-56.46-8.99-18.87-25.95-40.66-7.03-58.67,21.76-20.71,51.16-22.34,64.79-51.16"/><path d="M1076.67,520.31c.41-22.17,.61-44.35,.63-66.53,.02-18.58,3-37.27-9.41-52.62-21.17-26.19-64.46-43.89-55.58-84.98,3.71-17.15,16.8-26.64,24.78-41.05,10.5-18.97-1.59-39.42-10.45-56.55-9.49-18.34-28.37-40.96-8.81-58.83,22.54-20.59,53.13-21.12,68.38-49.61"/><path d="M1084.4,519.54c.39-22.77,.57-45.54,.61-68.32,.03-17.26,2.43-33.72-7.79-48.39-19.59-28.09-64.72-45.13-56.76-86.65,3.27-17.04,16.58-26.47,23.89-41.18,9.93-19.98-4.91-41.65-15.06-59.18-9.6-16.56-26.29-37.17-8.64-53.69,23.25-21.75,56.32-19.89,72.62-49.81"/><path d="M1092.19,519.91c.36-22.78,.54-45.56,.59-68.34,.04-17.11,2.5-33.76-7.16-48.56-18.23-27.93-63.85-46.17-57.56-86.02,2.66-16.85,15.73-25.82,23.03-40.11,10.27-20.09-5.75-41.93-16.39-59.22-9.93-16.15-28.26-37.37-10.31-53.89,23.8-21.9,57.94-18.92,75.75-48.48"/><path d="M1100.11,519.18c.31-22.81,.48-45.63,.54-68.44,.04-17.12,2.36-33.48-7.15-48.35-17.46-27.33-63.32-47.35-57.69-85.65,2.43-16.56,15.69-25.04,22.62-39.1,10-20.3-7.84-42.64-18.84-59.58-10.44-16.08-29.19-37.27-10.15-53.6,24.86-21.32,59.98-17.28,77.72-47.57"/><path d="M1108.12,519.59c.27-22.86,.42-45.73,.48-68.59,.05-17,2.39-33.52-6.66-48.49-16.48-27.26-62.72-48.18-58.56-85.16,1.84-16.42,14.88-24.58,21.91-38.24,10.47-20.35-8.31-42.76-19.67-59.53-10.62-15.67-30.83-37.43-11.77-53.84,25.17-21.67,61.18-16.54,80.2-46.53"/><path d="M1116.27,518.91c.21-22.94,.34-45.89,.4-68.83,.04-17.03,2.21-33.25-6.78-48.27-16.01-26.75-62.56-49.05-58.86-84.84,1.68-16.23,14.95-24,21.71-37.5,10.27-20.5-10.05-43.32-21.65-59.81-11-15.63-31.32-37.3-11.41-53.55,25.91-21.14,62.9-15.11,81.37-45.98"/><path d="M1124.53,519.39c.15-23.04,.25-46.09,.3-69.14,.04-16.94,2.21-33.29-6.46-48.36-15.42-26.82-62.27-49.56-59.83-84.48,1.13-16.15,14.21-23.76,21.19-36.9,10.88-20.49-10.02-43.26-21.9-59.64-11.03-15.22-32.53-37.38-12.94-53.81,25.92-21.73,63.62-14.6,83.03-45.31"/><path d="M1132.95,518.76c.09-23.18,.14-46.35,.17-69.53,.02-17,1.99-33.01-6.74-48.1-15.27-26.39-62.5-50.08-60.31-84.25,1.03-16.06,14.39-23.42,21.24-36.48,10.8-20.58-11.29-43.62-23.31-59.82-11.29-15.21-32.5-37.21-12.37-53.52,26.29-21.3,64.99-13.39,83.24-45.17"/><path d="M1141.51,519.31c.01-23.33,.02-46.66,.02-70,0-16.96,1.95-33.03-6.61-48.15-15.07-26.61-62.57-50.22-61.43-84.02,.54-16.06,13.76-23.45,20.94-36.19,11.57-20.53-10.64-43.32-22.87-59.52-11.19-14.83-33.17-37.21-13.75-53.8,25.92-22.15,65.18-13.11,83.93-44.92"/></svg>